<svg width="81" height="75" viewBox="0 0 81 75" fill="none" xmlns="http://www.w3.org/2000/svg">
<path fill-rule="evenodd" clip-rule="evenodd" d="M80.5 52.5105C81.5547 40.557 72.5001 34.5105 72.5001 34.5105V18.7414C72.5001 17.2693 72.1883 15.8035 71.4952 14.5048C63.7463 -0.0160039 52.6714 -0.00318373 41.5002 0.00974795C41.1669 0.0101338 40.8334 0.0105198 40.5 0.0105197C39.9671 0.0105197 39.4277 0.00794337 38.8828 0.00534068C29.1297 -0.0412437 17.6065 -0.096282 9.56167 14.4609C8.82955 15.7857 8.5 17.2958 8.50001 18.8095L8.50001 34.5105C8.50001 34.5105 0 39.5105 0 52.5105C0 65.5105 14.931 73.3195 40.5 74.0105C60 74.5375 79 69.5105 80.5 52.5105ZM55.5 36.5105C62.6797 36.5105 68.5 32.1902 68.5 25.0105C68.5 17.8308 63.1565 14.2866 55.5 13.0105C43.5 11.0105 42 14.0105 42 26.0105C42 33.1902 48.3203 36.5105 55.5 36.5105ZM12.5 24.5818C12.5 31.7615 18.3203 36.0818 25.5 36.0818C32.6797 36.0818 39 32.7615 39 25.5818C39 13.5818 37.5 10.5818 25.5 12.5818C17.8435 13.8579 12.5 17.4021 12.5 24.5818ZM40 34.5105C48 41.5105 60.5 42.5105 70 37.5105V64.0105C57 73.0105 25 73.5105 12.5 63.0105V36.5105C15.6667 39.0105 29 44.0105 40 34.5105Z" fill="white"/>
<ellipse cx="29.5" cy="54.0105" rx="4" ry="8" fill="white"/>
<ellipse cx="50.5" cy="54.0105" rx="4" ry="8" fill="white"/>
</svg>
