<svg width="74" height="79" viewBox="0 0 74 79" fill="none" xmlns="http://www.w3.org/2000/svg">
<path fill-rule="evenodd" clip-rule="evenodd" d="M69.6719 35.8046L73.3831 33.3137L69.6719 30.8228L28.4219 3.13579L23.75 0L23.75 5.62671L23.75 35.2513H26.75L26.75 9.23983V5.62671L29.75 7.64031L65.3085 31.5072L68 33.3137L65.3085 35.1203L41 51.4361V55.0492L69.6719 35.8046Z" fill="white"/>
<path d="M20.5 77.473C24.5427 77.473 28.0775 75.2413 30.5473 71.8824C33.0176 68.5228 34.5 63.9537 34.5 58.973C34.5 53.9923 33.0176 49.4232 30.5473 46.0636C28.0775 42.7047 24.5427 40.473 20.5 40.473C16.4573 40.473 12.9225 42.7047 10.4527 46.0636C7.98239 49.4232 6.5 53.9923 6.5 58.973C6.5 63.9537 7.98239 68.5228 10.4527 71.8824C12.9225 75.2413 16.4573 77.473 20.5 77.473Z" stroke="white" stroke-width="3"/>
<path d="M41 59.473H35.0723M6.42169 59.473H0M8.39759 69.473L1.9759 72.973M32.1084 69.473L38.0361 72.973M1.9759 46.473C16.4549 54.8081 24.6708 54.7289 39.5 46.473" stroke="white" stroke-width="3"/>
</svg>
