<svg width="81" height="81" viewBox="0 0 81 81" fill="none" xmlns="http://www.w3.org/2000/svg">
<mask id="path-1-outside-1_34_88" maskUnits="userSpaceOnUse" x="0" y="0" width="81" height="81" fill="black">
<rect fill="white" width="81" height="81"/>
<path fill-rule="evenodd" clip-rule="evenodd" d="M18.5972 11.0508L33.2574 19.9827L37.1305 4.03065L46.7588 3.99727L50.6401 19.9827L64.0436 11.8164L71.1163 18.8402L62.9315 32.2742L77.8918 35.9065L77.9269 46.0159L62.9315 49.6568L71.0953 63.0562L64.0697 70.1305L50.6401 61.9483L46.7685 77.8935L37.137 77.9269L33.2574 61.9483L18.6298 70.8604L12.0366 64.3127L20.9659 49.6568L4.029 45.5445L3.99727 36.3942L20.9659 32.2742L12.0512 17.6423L18.5972 11.0508Z"/>
</mask>
<path d="M18.5972 11.0508L20.1581 8.48884L18.1366 7.25719L16.4686 8.93683L18.5972 11.0508ZM33.2574 19.9827L31.6965 22.5447L35.2037 24.6815L36.1727 20.6906L33.2574 19.9827ZM37.1305 4.03065L37.1201 1.03067L34.7698 1.03882L34.2152 3.32282L37.1305 4.03065ZM46.7588 3.99727L49.6741 3.28943L49.1155 0.989081L46.7484 0.997289L46.7588 3.99727ZM50.6401 19.9827L47.7248 20.6906L48.6938 24.6815L52.201 22.5447L50.6401 19.9827ZM64.0436 11.8164L66.1576 9.68771L64.4899 8.03153L62.4827 9.25442L64.0436 11.8164ZM71.1163 18.8402L73.6783 20.4011L74.91 18.3796L73.2303 16.7116L71.1163 18.8402ZM62.9315 32.2742L60.3695 30.7132L58.2327 34.2205L62.2236 35.1895L62.9315 32.2742ZM77.8918 35.9065L80.8918 35.8961L80.8837 33.5458L78.5997 32.9912L77.8918 35.9065ZM77.9269 46.0159L78.6347 48.9312L80.9351 48.3727L80.9269 46.0055L77.9269 46.0159ZM62.9315 49.6568L62.2236 46.7415L58.2327 47.7105L60.3695 51.2178L62.9315 49.6568ZM71.0953 63.0562L73.2239 65.1701L74.8801 63.5024L73.6572 61.4952L71.0953 63.0562ZM64.0697 70.1305L62.5088 72.6925L64.5304 73.9241L66.1984 72.2445L64.0697 70.1305ZM50.6401 61.9483L52.201 59.3863L48.6938 57.2495L47.7248 61.2404L50.6401 61.9483ZM46.7685 77.8935L46.7789 80.8935L49.1293 80.8853L49.6838 78.6013L46.7685 77.8935ZM37.137 77.9269L34.2217 78.6347L34.7802 80.9351L37.1474 80.9269L37.137 77.9269ZM33.2574 61.9483L36.1727 61.2404L35.2037 57.2495L31.6965 59.3863L33.2574 61.9483ZM18.6298 70.8604L16.5158 72.989L18.1836 74.6452L20.1907 73.4223L18.6298 70.8604ZM12.0366 64.3127L9.47464 62.7518L8.24299 64.7733L9.92263 66.4414L12.0366 64.3127ZM20.9659 49.6568L23.5279 51.2178L25.6647 47.7105L21.6738 46.7415L20.9659 49.6568ZM4.029 45.5445L1.02901 45.5549L1.03716 47.9053L3.32116 48.4598L4.029 45.5445ZM3.99727 36.3942L3.28943 33.4789L0.989081 34.0374L0.997289 36.4046L3.99727 36.3942ZM20.9659 32.2742L21.6738 35.1895L25.6647 34.2205L23.5279 30.7132L20.9659 32.2742ZM12.0512 17.6423L9.92258 15.5284L8.2664 17.1961L9.4893 19.2032L12.0512 17.6423ZM17.0363 13.6127L31.6965 22.5447L34.8183 17.4208L20.1581 8.48884L17.0363 13.6127ZM36.1727 20.6906L40.0458 4.73849L34.2152 3.32282L30.3421 19.2749L36.1727 20.6906ZM37.1409 7.03063L46.7692 6.99725L46.7484 0.997289L37.1201 1.03067L37.1409 7.03063ZM43.8435 4.70511L47.7248 20.6906L53.5554 19.2749L49.6741 3.28943L43.8435 4.70511ZM52.201 22.5447L65.6045 14.3783L62.4827 9.25442L49.0791 17.4208L52.201 22.5447ZM61.9297 13.945L69.0024 20.9689L73.2303 16.7116L66.1576 9.68771L61.9297 13.945ZM68.5544 17.2793L60.3695 30.7132L65.4934 33.8351L73.6783 20.4011L68.5544 17.2793ZM62.2236 35.1895L77.184 38.8218L78.5997 32.9912L63.6393 29.3589L62.2236 35.1895ZM74.8919 35.9169L74.9269 46.0263L80.9269 46.0055L80.8918 35.8961L74.8919 35.9169ZM77.219 43.1006L62.2236 46.7415L63.6393 52.5721L78.6347 48.9312L77.219 43.1006ZM60.3695 51.2178L68.5333 64.6171L73.6572 61.4952L65.4934 48.0959L60.3695 51.2178ZM68.9666 60.9422L61.9411 68.0166L66.1984 72.2445L73.2239 65.1701L68.9666 60.9422ZM65.6307 67.5686L52.201 59.3863L49.0791 64.5102L62.5088 72.6925L65.6307 67.5686ZM47.7248 61.2404L43.8532 77.1857L49.6838 78.6013L53.5554 62.6561L47.7248 61.2404ZM46.7581 74.8935L37.1266 74.9269L37.1474 80.9269L46.7789 80.8935L46.7581 74.8935ZM40.0523 77.219L36.1727 61.2404L30.3421 62.6561L34.2217 78.6347L40.0523 77.219ZM31.6965 59.3863L17.0689 68.2984L20.1907 73.4223L34.8183 64.5102L31.6965 59.3863ZM20.7438 68.7317L14.1505 62.1841L9.92263 66.4414L16.5158 72.989L20.7438 68.7317ZM14.5985 65.8736L23.5279 51.2178L18.404 48.0959L9.47464 62.7518L14.5985 65.8736ZM21.6738 46.7415L4.73683 42.6292L3.32116 48.4598L20.2581 52.5721L21.6738 46.7415ZM7.02898 45.5341L6.99725 36.3838L0.997289 36.4046L1.02901 45.5549L7.02898 45.5341ZM4.70511 39.3095L21.6738 35.1895L20.2581 29.3589L3.28943 33.4789L4.70511 39.3095ZM23.5279 30.7132L14.6132 16.0814L9.4893 19.2032L18.404 33.8351L23.5279 30.7132ZM14.1799 19.7563L20.7259 13.1647L16.4686 8.93683L9.92258 15.5284L14.1799 19.7563Z" fill="white" mask="url(#path-1-outside-1_34_88)"/>
<circle cx="40.9307" cy="40.9961" r="11.5" stroke="white" stroke-width="3"/>
</svg>
