<svg width="200" height="200" viewBox="0 0 200 200" fill="none" xmlns="http://www.w3.org/2000/svg">
<rect width="200" height="200" fill="#AFCCF1"/>
<path d="M65.1875 129.062L64.5625 133.281C64.1198 136.25 63.4427 139.427 62.5313 142.813C61.6458 146.198 60.7214 149.388 59.7578 152.383C58.7943 155.378 58 157.76 57.375 159.531H50.3438C50.6823 157.865 51.125 155.664 51.6719 152.93C52.2188 150.195 52.7656 147.135 53.3125 143.75C53.8854 140.391 54.3542 136.953 54.7188 133.437L55.1875 129.062H65.1875ZM59.5625 96.0937C57.6354 96.0937 55.9818 95.4036 54.6016 94.0234C53.2214 92.6432 52.5312 90.9896 52.5312 89.0625C52.5312 87.1354 53.2214 85.4818 54.6016 84.1016C55.9818 82.7214 57.6354 82.0313 59.5625 82.0313C61.4896 82.0313 63.1432 82.7214 64.5234 84.1016C65.9036 85.4818 66.5938 87.1354 66.5938 89.0625C66.5938 90.3385 66.2682 91.5104 65.6172 92.5781C64.9922 93.6458 64.1458 94.5052 63.0781 95.1562C62.0365 95.7812 60.8646 96.0937 59.5625 96.0937ZM108.205 140H83.5176V60H109.299C117.059 60 123.7 61.6016 129.221 64.8047C134.742 67.9818 138.973 72.5521 141.916 78.5156C144.859 84.4531 146.33 91.5625 146.33 99.8437C146.33 108.177 144.846 115.352 141.877 121.367C138.908 127.357 134.585 131.966 128.908 135.195C123.231 138.398 116.33 140 108.205 140ZM93.2051 131.406H107.58C114.195 131.406 119.676 130.13 124.025 127.578C128.374 125.026 131.617 121.393 133.752 116.68C135.887 111.966 136.955 106.354 136.955 99.8437C136.955 93.3854 135.9 87.8255 133.791 83.1641C131.682 78.4766 128.531 74.8828 124.338 72.3828C120.145 69.8568 114.924 68.5937 108.674 68.5937H93.2051V131.406Z" fill="white"/>
</svg>
